<?xml version="1.0" encoding="utf-8"?>

<svg version="1.0" id="katman_1" xmlns="http://www.w3.org/2000/svg" xmlns:xlink="http://www.w3.org/1999/xlink" x="0px" y="0px" viewBox="0 0 1280 1024" style="enable-background:new 0 0 1280 1024;" xml:space="preserve">

<g>
&#x9;<path class="st0" d="M260.6,426.4c1.4,0,2.6,0.6,3.5,1.5l23.7,23.6c1,0.9,1.6,2.2,1.5,3.5v80.1c0,34.8-28.3,62.9-62.9,62.9h-80.1&#xA;&#x9;&#x9;c-1.3,0-2.6-0.6-3.5-1.5l-23.6-23.6c-1-0.9-1.6-2.2-1.5-3.5v-80.1c0-34.8,28.1-62.9,62.7-62.9L260.6,426.4L260.6,426.4z&#xA;&#x9;&#x9; M140.7,573.2v-83.9c0-22.1,17.8-39.9,39.9-40.1h61.1c0.9,0,1.7,0.8,1.7,1.7v81.6c0,10.7-8.7,19.3-19.4,19.4h-43.1&#xA;&#x9;&#x9;c-0.6,0-1.2,0.5-1.5,1.1l-2.9,7.6c-0.4,0.8,0,1.8,0.8,2.1c0.2,0.1,0.4,0.1,0.7,0.1h48.4c15.3,0,27.8-12.3,27.8-27.7&#xA;&#x9;&#x9;c0-0.1,0-0.1,0-0.2v-94.8c0-0.9-0.7-1.7-1.7-1.7h-72c-28,0-50.8,22.6-50.8,50.6c0,0.1,0,0.1,0,0.2v76.4c0,0.4,0.2,0.9,0.5,1.2&#xA;&#x9;&#x9;l7.6,7.6c0.7,0.7,1.7,0.7,2.4,0C140.5,574.1,140.7,573.7,140.7,573.2L140.7,573.2z M175.6,538.2v-46.6c0-3.9,3.2-7.1,7.3-7.1h46.6&#xA;&#x9;&#x9;c0.9,0,1.7,0.8,1.7,1.7v46.6c0,3.9-3.2,7.3-7.1,7.3h-46.7C176.4,539.8,175.6,539.1,175.6,538.2z M226.4,585.8&#xA;&#x9;&#x9;c28,0,50.7-22.8,50.7-50.8v-76.4c0-0.4-0.2-0.9-0.5-1.2l-7.6-7.6c-0.7-0.7-1.7-0.7-2.4,0c-0.3,0.3-0.5,0.8-0.5,1.2v84.1&#xA;&#x9;&#x9;c0,22-17.8,39.9-39.8,39.9c0,0-0.1,0-0.1,0h-61.1c-0.9,0-1.7-0.8-1.7-1.7v-81.6c0-10.7,8.7-19.3,19.4-19.4h43.1&#xA;&#x9;&#x9;c0.6,0,1.2-0.5,1.5-1.1l2.9-7.6c0.4-0.8,0-1.8-0.8-2.1c-0.2-0.1-0.4-0.1-0.7-0.1h-48.2c-15.4,0-27.8,12.5-27.8,27.8v94.8&#xA;&#x9;&#x9;c0,0.9,0.8,1.7,1.7,1.7L226.4,585.8L226.4,585.8z M1140.9,529.5c-0.9-1.7-0.5-3.8,1.1-5c4.5-3.4,8.2-7.7,10.9-12.7&#xA;&#x9;&#x9;c3.2-5.9,4.8-13.2,4.8-21.6c0-5.6-0.9-10.9-2.6-16c-1.7-5-4.6-9.5-8.5-13c-3.9-3.6-9.2-6.7-15.7-8.8c-6.5-2.1-14.5-3.2-24.2-3.2&#xA;&#x9;&#x9;H1057c-2.2,0-3.9,1.8-3.9,3.9v117.3c0,2.1,1.8,3.9,3.9,3.9h29.6c2.1,0,3.9-1.8,3.9-3.9v-32.2c0-2.1,1.8-3.9,3.9-3.9h7.7&#xA;&#x9;&#x9;c1.5,0,2.9,0.9,3.5,2.1l17.8,35.8c0.6,1.3,2,2.2,3.5,2.1h31.6c2.2,0,3.9-1.7,3.9-3.9c0-0.6-0.2-1.3-0.5-1.8&#xA;&#x9;&#x9;C1162.1,568.7,1140.9,529.5,1140.9,529.5z M1103.5,505.5c6.1,0,10.1-1.1,12.7-3.3c2.6-2.3,3.8-5.6,3.8-10s-1.2-7.7-3.8-10&#xA;&#x9;&#x9;c-2.6-2.3-6.8-3.3-12.7-3.3h-9.4c-2.2,0-3.9,1.8-3.9,3.9v18.7c0,2.1,1.8,3.9,3.9,3.9H1103.5z M1014.3,543.9H965&#xA;&#x9;&#x9;c-2.2,0-3.9-1.8-3.9-3.9v-9.4c0-2.1,1.8-3.9,3.9-3.9h42.6c2.1,0,3.9-1.8,3.9-3.9v-22.8c0-2.2-1.8-3.9-3.9-3.9H965&#xA;&#x9;&#x9;c-2.2,0-3.9-1.8-3.9-3.9v-8c0-2.1,1.8-3.9,3.9-3.9h46.3c2.1,0,3.9-1.8,3.9-3.9v-22.8c0-2.2-1.8-3.9-3.9-3.9H926&#xA;&#x9;&#x9;c-2.2,0-3.9,1.8-3.9,3.9v117.3c0,2.1,1.8,3.9,3.9,3.9h86.2c2.1,0,3.8-1.6,3.9-3.6l2.3-22.8C1018.6,545.9,1016.6,543.9,1014.3,543.9&#xA;&#x9;&#x9;z M873.7,504.7c-1.7,1.3-2,3.8-0.7,5.5c0.3,0.4,0.6,0.7,1,0.9c9.1,5.9,13.6,14.8,13.6,26.6c0,5-0.8,9.7-2.4,14.1&#xA;&#x9;&#x9;c-1.5,4.5-4.4,8.5-8.2,11.8c-3.9,3.3-8.9,6.1-15.1,8c-6.2,2-13.9,3-23,3H786c-2.2,0-3.9-1.8-3.9-3.9V453.3c0-2.1,1.8-3.9,3.9-3.9&#xA;&#x9;&#x9;h54.4c8.5,0,15.4,0.9,21,2.6c5.6,1.7,10.1,4.1,13.5,7c3.3,3,5.7,6.3,7.1,10.3c1.4,3.9,2.1,8,2.1,12.4c0,5.6-1.2,10.7-3.6,15.3&#xA;&#x9;&#x9;C878.8,499.9,876.5,502.6,873.7,504.7L873.7,504.7z M818.4,481.9c0-2.1,1.8-3.9,3.9-3.9h11.6c4.8,0,8.3,0.8,10,2.4&#xA;&#x9;&#x9;c1.8,1.7,2.6,3.9,2.6,7c0,3-0.9,5.4-2.6,7c-1.8,1.7-5.1,2.4-10,2.4h-11.7c-2.2,0-3.9-1.8-3.9-3.9L818.4,481.9L818.4,481.9z&#xA;&#x9;&#x9; M834.8,546c5.9,0,10-1.1,12.1-3c2.1-2,3.2-4.8,3.2-8.3c0-3.8-1.1-6.7-3.2-8.6c-2.1-2-6.2-3-12.1-3h-12.6c-2.2,0-3.9,1.8-3.9,3.9&#xA;&#x9;&#x9;v15.1c0,2.1,1.8,3.9,3.9,3.9H834.8z M734.1,511.1c-1.8-1.2-2.3-3.6-1.2-5.4c0.2-0.4,0.5-0.7,0.9-1c2.7-2.2,5.1-4.8,6.8-7.9&#xA;&#x9;&#x9;c2.4-4.5,3.6-9.7,3.6-15.3c0-4.4-0.8-8.5-2.1-12.4c-1.4-3.9-3.8-7.3-7.1-10.3c-3.3-2.9-7.9-5.3-13.5-7c-5.6-1.7-12.6-2.6-21-2.6&#xA;&#x9;&#x9;H646c-2.2,0-3.9,1.8-3.9,3.9v117.3c0,2.1,1.8,3.9,3.9,3.9h52.9c9.1,0,16.8-1.1,23-3c6.2-2,11.2-4.7,15.1-8&#xA;&#x9;&#x9;c3.8-3.3,6.6-7.3,8.2-11.8c1.7-4.4,2.4-9.1,2.4-14.1C747.7,525.9,743.2,517,734.1,511.1L734.1,511.1z M682.4,478&#xA;&#x9;&#x9;c-2.2,0-3.9,1.8-3.9,3.9v10.9c0,2.1,1.8,3.9,3.9,3.9h11.6c4.8,0,8.2-0.8,10-2.4c1.7-1.5,2.6-3.9,2.6-7c0-3-0.8-5.3-2.6-7&#xA;&#x9;&#x9;c-1.7-1.7-5.1-2.4-10-2.4C694.1,478,682.4,478,682.4,478z M707.1,543c-2.1,2-6.2,3-12.1,3h-12.6c-2.2,0-3.9-1.8-3.9-3.9V527&#xA;&#x9;&#x9;c0-2.1,1.8-3.9,3.9-3.9H695c5.9,0,10,1.1,12.1,3c2.1,2,3.2,4.8,3.2,8.6C710.3,538.2,709.2,541,707.1,543L707.1,543z M571.5,450.8&#xA;&#x9;&#x9;c7.9,2.9,14.4,7.3,19.7,12.8c5.3,5.6,9.2,12.4,11.9,20.3c2.7,8,4.1,17.1,4.1,27.2c0,10.3-1.4,19.4-4.1,27.7&#xA;&#x9;&#x9;c-2.7,8.3-6.8,15.3-12.1,21c-5.5,5.9-12.4,10.5-20,13.3c-8,3.2-17.1,4.7-27.5,4.7c-10.1,0-19.2-1.5-26.9-4.5&#xA;&#x9;&#x9;c-7.5-2.7-14.2-7.1-19.6-12.9c-5.3-5.6-9.2-12.6-12-20.6c-2.7-8-4.1-17.2-4.1-27.4c0-10.1,1.4-19.2,4.1-27.4&#xA;&#x9;&#x9;c2.7-8.2,6.6-15.1,12.1-20.9c5.5-5.9,12.3-10.5,20-13.3c7.9-3.2,17.1-4.7,27.5-4.7C554.7,446.2,563.7,447.7,571.5,450.8z&#xA;&#x9;&#x9; M543.9,543.6c-14.7,0-21.9-10.6-21.9-31.6c0-21,7.3-31.6,21.9-31.6c14.7,0,21.9,10.6,21.9,31.6C565.9,533,558.6,543.6,543.9,543.6&#xA;&#x9;&#x9;z M410.9,449.4h31.9c2.1,0,3.9,1.7,3.8,3.9v72.6c0,17.1-4.7,29.9-14.1,38.7c-9.4,8.6-22.4,13-38.9,13c-17.4,0-30.5-4.4-39.5-13.5&#xA;&#x9;&#x9;c-8-8.2-12.7-19.8-13.8-34.8c-0.1-2.2,1.5-4.1,3.7-4.2c0.1,0,0.1,0,0.2,0h31.9c2,0,3.6,1.5,3.9,3.5c0.4,4.2,1.7,7.6,3.3,10.1&#xA;&#x9;&#x9;c2.1,3.2,5.6,4.8,10.3,4.8c4.7,0,8-1.4,10.1-4.2c2-2.9,3-6.8,3-11.6v-74.4C406.9,451.2,408.7,449.4,410.9,449.4z"></path>
</g>
</svg>